<svg xmlns="http://www.w3.org/2000/svg" viewBox="0 0 64 64" shape-rendering="crispEdges"><rect x="0" y="0" width="64" height="64" fill="#5a5648"/><path d="M64 0V64H0z" fill="#0e0d0b"/><rect x="2" y="2" width="60" height="60" fill="#1d1c1a"/><rect x="5" y="5" width="12" height="12" fill="#d9a441"/><rect x="5" y="5" width="12" height="1.5" fill="#f0c878"/><rect x="5" y="5" width="1.5" height="12" fill="#f0c878"/><rect x="5" y="15.5" width="12" height="1.5" fill="#8f6a1c"/><rect x="15.5" y="5" width="1.5" height="12" fill="#8f6a1c"/><rect x="19" y="5" width="12" height="12" fill="#7a5a18"/><rect x="19" y="5" width="12" height="1.5" fill="#d9a441"/><rect x="19" y="5" width="1.5" height="12" fill="#d9a441"/><rect x="19" y="15.5" width="12" height="1.5" fill="#0e0d0b"/><rect x="29.5" y="5" width="1.5" height="12" fill="#0e0d0b"/><rect x="33" y="5" width="12" height="12" fill="#d9a441"/><rect x="33" y="5" width="12" height="1.5" fill="#f0c878"/><rect x="33" y="5" width="1.5" height="12" fill="#f0c878"/><rect x="33" y="15.5" width="12" height="1.5" fill="#8f6a1c"/><rect x="43.5" y="5" width="1.5" height="12" fill="#8f6a1c"/><rect x="47" y="5" width="12" height="12" fill="#2b2a27"/><rect x="5" y="19" width="12" height="12" fill="#2b2a27"/><rect x="19" y="19" width="12" height="12" fill="#d9a441"/><rect x="19" y="19" width="12" height="1.5" fill="#f0c878"/><rect x="19" y="19" width="1.5" height="12" fill="#f0c878"/><rect x="19" y="29.5" width="12" height="1.5" fill="#8f6a1c"/><rect x="29.5" y="19" width="1.5" height="12" fill="#8f6a1c"/><rect x="33" y="19" width="12" height="12" fill="#2b2a27"/><rect x="47" y="19" width="12" height="12" fill="#7a5a18"/><rect x="47" y="19" width="12" height="1.5" fill="#d9a441"/><rect x="47" y="19" width="1.5" height="12" fill="#d9a441"/><rect x="47" y="29.5" width="12" height="1.5" fill="#0e0d0b"/><rect x="57.5" y="19" width="1.5" height="12" fill="#0e0d0b"/><rect x="5" y="33" width="12" height="12" fill="#d9a441"/><rect x="5" y="33" width="12" height="1.5" fill="#f0c878"/><rect x="5" y="33" width="1.5" height="12" fill="#f0c878"/><rect x="5" y="43.5" width="12" height="1.5" fill="#8f6a1c"/><rect x="15.5" y="33" width="1.5" height="12" fill="#8f6a1c"/><rect x="19" y="33" width="12" height="12" fill="#2b2a27"/><rect x="33" y="33" width="12" height="12" fill="#d9a441"/><rect x="33" y="33" width="12" height="1.5" fill="#f0c878"/><rect x="33" y="33" width="1.5" height="12" fill="#f0c878"/><rect x="33" y="43.5" width="12" height="1.5" fill="#8f6a1c"/><rect x="43.5" y="33" width="1.5" height="12" fill="#8f6a1c"/><rect x="47" y="33" width="12" height="12" fill="#7a5a18"/><rect x="47" y="33" width="12" height="1.5" fill="#d9a441"/><rect x="47" y="33" width="1.5" height="12" fill="#d9a441"/><rect x="47" y="43.5" width="12" height="1.5" fill="#0e0d0b"/><rect x="57.5" y="33" width="1.5" height="12" fill="#0e0d0b"/><rect x="5" y="47" width="12" height="12" fill="#2b2a27"/><rect x="19" y="47" width="12" height="12" fill="#7a5a18"/><rect x="19" y="47" width="12" height="1.5" fill="#d9a441"/><rect x="19" y="47" width="1.5" height="12" fill="#d9a441"/><rect x="19" y="57.5" width="12" height="1.5" fill="#0e0d0b"/><rect x="29.5" y="47" width="1.5" height="12" fill="#0e0d0b"/><rect x="33" y="47" width="12" height="12" fill="#2b2a27"/><rect x="47" y="47" width="12" height="12" fill="#7a5a18"/><rect x="47" y="47" width="12" height="1.5" fill="#d9a441"/><rect x="47" y="47" width="1.5" height="12" fill="#d9a441"/><rect x="47" y="57.5" width="12" height="1.5" fill="#0e0d0b"/><rect x="57.5" y="47" width="1.5" height="12" fill="#0e0d0b"/></svg>
